<svg width="109" height="39" viewBox="0 0 109 39" fill="none" xmlns="http://www.w3.org/2000/svg">
<path d="M20.2427 24.0635C17.6929 24.0635 15.7227 22.0353 15.7227 19.4276C15.7227 16.8633 17.7364 14.7772 20.1847 14.7627C22.9663 14.7627 24.7048 17.0227 24.6323 19.558C24.5744 22.1512 22.749 24.0635 20.2427 24.0635ZM20.4165 22.1947C21.2568 22.1947 21.6335 21.7311 21.4451 20.9343C21.3437 20.4852 21.2278 20.0216 21.0974 19.5725C20.996 19.2103 20.9091 18.9205 21.2713 18.5873C21.6624 18.2396 21.5755 17.5587 21.1988 17.1821C20.8077 16.7909 20.1702 16.7475 19.7356 17.0951C19.3155 17.4284 19.1416 18.1672 19.5328 18.5294C19.9674 18.935 19.8225 19.3117 19.6922 19.7463C19.5763 20.152 19.4893 20.5576 19.3879 20.9632C19.2141 21.7311 19.6052 22.1802 20.4165 22.1947Z" fill="#FF1717"/>
<path d="M39.916 19.5145C39.916 30.1047 31.4265 39.0433 20.3293 38.9998C9.49281 38.9564 0.959818 30.2206 0.945331 19.558C0.930844 8.69251 9.53627 0.0581063 20.3003 0.000157321C31.47 -0.0433044 39.9016 8.9243 39.916 19.5145ZM20.4017 34.6682C28.6739 34.6682 35.4685 28.1924 35.5844 19.7897C35.7147 10.996 28.8478 4.40428 20.5031 4.36082C12.0426 4.31736 5.19009 10.938 5.23356 19.6594C5.29151 27.9316 11.9412 34.6392 20.4017 34.6682Z" fill="#FB1716"/>
<path d="M44.2624 25.1066C44.3783 24.8314 44.5376 24.3822 44.7259 23.9476C46.3485 20.0361 47.9711 16.1245 49.6082 12.213C49.84 11.6769 50.1876 11.3003 50.8396 11.2858C51.5494 11.2858 51.8827 11.7059 52.1289 12.2854C53.172 14.7627 54.2006 17.2545 55.2437 19.7463C55.8956 21.2965 56.5475 22.8466 57.185 24.3967C57.2719 24.614 57.3443 24.8314 57.3733 25.0632C57.4458 25.6716 57.1705 26.1352 56.6345 26.3235C56.0695 26.5119 55.5334 26.3235 55.2582 25.7585C54.8815 24.9907 54.5338 24.1939 54.2151 23.3826C54.0702 23.0204 53.8819 22.8901 53.4763 22.8901C51.7088 22.919 49.9269 22.919 48.1594 22.8901C47.6958 22.8901 47.464 23.0349 47.3192 23.4696C47.0584 24.1794 46.7397 24.8748 46.4354 25.5847C46.1457 26.2511 45.5952 26.5264 44.9577 26.3235C44.4797 26.1497 44.2479 25.831 44.2624 25.1066ZM52.9692 20.4997C52.2303 18.8047 51.535 17.1821 50.8396 15.574C50.7816 15.574 50.7382 15.5885 50.6802 15.5885C49.9993 17.2111 49.3184 18.8191 48.6085 20.4997C50.1007 20.4997 51.4625 20.4997 52.9692 20.4997Z" fill="#FF1618"/>
<path d="M86.3757 15.9506C86.4337 15.7623 86.4626 15.6464 86.5061 15.516C86.6944 14.98 87.1725 14.6613 87.781 14.7047C88.317 14.7337 88.7371 15.0959 88.853 15.6464C88.8965 15.8637 88.9255 16.081 88.9255 16.2839C88.9255 19.0654 88.94 21.8614 88.9255 24.643C88.9255 25.2804 88.8241 25.8889 88.1287 26.1786C87.4912 26.4394 86.7958 26.1497 86.5206 25.5122C86.4771 25.3963 86.4337 25.266 86.3757 25.1356C85.8397 25.4688 85.3471 25.8454 84.8111 26.0917C82.7684 27.0334 80.2766 26.2945 78.9438 24.3967C77.2632 22.0208 77.4226 18.5149 79.3059 16.3128C80.8706 14.4729 83.768 14.1687 85.8832 15.6319C86.0425 15.7189 86.1874 15.8203 86.3757 15.9506ZM80.2331 20.6155C80.2331 20.8329 80.2186 21.0502 80.2331 21.2675C80.3056 22.4989 81.2762 23.7303 82.4352 24.0925C83.7101 24.4836 85.0284 24.049 85.8397 22.9625C86.7089 21.8035 86.7958 19.7898 86.057 18.5584C85.0574 16.9213 83.0581 16.4287 81.5949 17.5153C80.5663 18.2686 80.1462 19.3552 80.2331 20.6155Z" fill="#FF1618"/>
<path d="M72.9749 15.9507C73.1632 15.2408 73.4529 14.7337 74.1773 14.7048C74.9886 14.6758 75.5101 15.1973 75.5101 16.0376C75.5101 18.1672 75.5101 20.2823 75.5101 22.412C75.5101 23.2377 75.5101 24.049 75.5101 24.8748C75.5101 25.6571 75.1335 26.1497 74.4381 26.2946C73.8731 26.4105 73.337 26.0338 73.0473 25.3384C73.0183 25.2804 72.9893 25.2225 72.9604 25.1501C72.4243 25.4833 71.9463 25.8599 71.3957 26.1062C69.44 26.961 67.3103 26.4394 65.8326 24.7879C63.9493 22.6872 63.9058 18.7032 65.7312 16.5446C67.4842 14.4874 70.1643 14.1108 72.4099 15.603C72.5837 15.6899 72.7431 15.7913 72.9749 15.9507ZM69.9615 16.9503C68.788 16.9648 67.8898 17.4863 67.2958 18.5004C66.7019 19.529 66.6294 20.63 66.9192 21.7311C67.2669 23.0494 68.0637 23.9766 69.4979 24.1794C70.7438 24.3533 71.7579 23.9042 72.4823 22.8756C73.366 21.6297 73.3805 19.6014 72.5258 18.3411C71.9173 17.4573 71.077 16.9503 69.9615 16.9503Z" fill="#FF1618"/>
<path d="M97.1976 20.6156C97.1107 17.3125 99.5156 14.8786 102.514 14.6903C106.31 14.4585 108.672 17.3559 108.729 20.3983C108.787 23.8897 106.383 26.3815 103.123 26.4684C99.6459 26.5843 97.1107 23.9476 97.1976 20.6156ZM99.6894 20.5721C99.6894 20.746 99.6894 20.9053 99.6894 21.0792C99.7618 23.4261 102.283 24.9473 104.369 23.8897C105.933 23.1074 106.643 21.1806 106.064 19.3262C105.441 17.327 103.282 16.3418 101.529 17.2835C100.225 17.9644 99.6604 19.1089 99.6894 20.5721Z" fill="#FF1618"/>
<path d="M94.6786 21.5572C94.6786 23.2377 94.7076 24.9327 94.6641 26.6132C94.6352 28.1778 94.0702 29.4962 92.549 30.1626C92.0564 30.3799 91.448 30.4089 90.9119 30.3944C90.4483 30.3799 90.1586 30.0177 90.1007 29.5252C90.0282 28.9746 90.0427 28.4531 90.6367 28.1489C90.7236 28.1054 90.8105 28.0475 90.9119 28.033C91.9985 27.7722 92.2158 26.9609 92.2158 26.0192C92.2158 22.7451 92.2158 19.471 92.2158 16.1969C92.2158 15.5739 92.4766 15.1973 93.0561 14.9799C93.4907 14.8061 94.0557 14.922 94.3454 15.3421C94.5338 15.6029 94.6641 15.9796 94.6641 16.2983C94.6931 18.0368 94.6786 19.8042 94.6786 21.5572Z" fill="#FF1618"/>
<path d="M61.8769 18.4135C61.8769 20.5866 61.8624 22.7597 61.8914 24.9327C61.9059 25.5847 61.4568 26.2656 60.602 26.2945C59.9356 26.309 59.4141 25.7006 59.4141 24.9472C59.4141 20.5866 59.4141 16.2259 59.4141 11.8652C59.4141 11.0829 59.9935 10.4745 60.7034 10.5034C61.3698 10.5324 61.8769 11.1119 61.8769 11.8652C61.8769 14.0383 61.8769 16.2259 61.8769 18.4135Z" fill="#FF1618"/>
<path d="M94.6909 12.1839C94.6909 13.1545 94.4156 13.4153 93.387 13.4298C92.4164 13.4443 92.1121 13.14 92.0977 12.2129C92.0977 11.2277 92.3584 10.9814 93.387 10.9814C94.4736 10.9814 94.6909 11.1843 94.6909 12.1839Z" fill="#FB1716"/>
<path d="M70.4402 10.1703C70.5126 10.2427 70.7444 10.3441 70.8024 10.5325C71.0921 11.3872 71.3529 12.2564 71.5992 13.1257C71.6281 13.2126 71.5557 13.3864 71.4978 13.4154C71.3963 13.4589 71.208 13.4299 71.1501 13.372C70.5706 12.5896 69.9476 11.8218 69.4406 10.996C69.2088 10.5904 69.7013 10.1558 70.4402 10.1703Z" fill="white"/>
<path d="M84.9856 10.1412C85.8113 10.2571 86.2459 10.6048 85.8403 11.2423C85.4057 11.9377 84.8841 12.5896 84.3771 13.2415C84.2902 13.3574 84.0729 13.3574 83.9135 13.4154C83.8845 13.2705 83.8266 13.1111 83.8556 12.9807C84.0584 12.1984 84.2612 11.4161 84.522 10.6628C84.6089 10.431 84.8697 10.2716 84.9856 10.1412Z" fill="white"/>
<path d="M23.6171 10.6773C23.4143 9.88046 23.9214 9.99636 24.356 9.99636C25.9206 9.99636 27.4997 9.99636 29.0643 9.99636C29.2092 9.99636 29.3541 10.0108 29.5424 10.0108C29.5424 16.2548 29.5424 22.4844 29.5424 28.7574C27.5866 28.7574 25.6308 28.7574 23.6316 28.7574C23.6171 28.6125 23.5881 28.4531 23.5592 28.2648C22.9797 28.4821 22.4292 28.7284 21.8642 28.8877C18.9667 29.6556 16.3445 29.0181 14.0555 27.1348C11.9114 25.3673 10.7669 23.0349 10.5496 20.2533C10.2888 16.9647 11.3754 14.1977 13.7658 11.9521C15.229 10.5758 17.0109 9.86597 19.0247 9.66315C20.5313 9.51828 21.8931 9.88046 23.2115 10.5034C23.3274 10.5614 23.4288 10.5903 23.6171 10.6773ZM24.5733 12.6765C23.9069 12.1839 23.2984 11.561 22.574 11.2278C20.1112 10.1123 17.6773 10.402 15.5043 11.8942C12.2446 14.1107 11.0422 17.2979 11.6506 21.1515C12.0418 23.5854 13.3312 25.5122 15.3594 26.9175C16.4459 27.6708 17.6629 28.0909 18.9812 28.2068C20.5024 28.3372 21.9366 28.1924 23.197 27.2072C23.704 26.8161 24.1676 26.3959 24.5733 26.0482C24.5733 26.3814 24.5878 26.903 24.5733 27.41C24.5588 27.7722 24.7037 27.8736 25.0369 27.8591C25.4715 27.8447 25.9061 27.8591 26.3407 27.8591C27.0796 27.8591 27.8329 27.8591 28.6297 27.8591C28.6297 27.5839 28.6297 27.3955 28.6297 27.1927C28.6297 24.2953 28.6297 21.4123 28.6297 18.5149C28.6297 16.1534 28.6297 13.8065 28.6297 11.4451C28.6297 11.1843 28.6442 10.9525 28.253 10.9525C27.152 10.967 26.051 10.967 24.9499 10.9525C24.6747 10.9525 24.5588 11.0684 24.5733 11.3437C24.5733 11.8218 24.5733 12.2853 24.5733 12.6765Z" fill="#FB1716"/>
<path d="M20.2293 23.3246C18.0851 23.3246 16.4336 21.6151 16.4336 19.4275C16.4336 17.2689 18.1141 15.516 20.1858 15.516C22.5327 15.516 23.9815 17.4138 23.9235 19.5579C23.88 21.7165 22.3444 23.3246 20.2293 23.3246ZM20.3741 21.7455C21.084 21.7455 21.4027 21.3544 21.2434 20.6879C21.1564 20.3113 21.055 19.9201 20.9536 19.5434C20.8667 19.2392 20.7943 18.9929 21.0985 18.7177C21.4317 18.4279 21.3593 17.8629 21.0405 17.5442C20.7073 17.211 20.1713 17.182 19.8091 17.4718C19.4614 17.7615 19.3166 18.37 19.6353 18.6742C19.9975 19.0219 19.8816 19.3261 19.7657 19.6883C19.6643 20.0215 19.5918 20.3692 19.5194 20.7169C19.3745 21.3544 19.6932 21.7455 20.3741 21.7455Z" fill="white"/>
</svg>
