<svg width="1373" height="360" viewBox="0 0 1373 360" fill="none" xmlns="http://www.w3.org/2000/svg">
<path d="M957.497 88.4335C956.383 100.405 952.764 111.263 948.031 121.564C939.679 140.495 928.543 157.478 916.014 173.625C894.299 201.465 894.299 242.669 915.736 270.788C943.576 307.537 993.411 314.776 1030.72 287.214C1065.8 261.322 1073.59 208.982 1047.14 174.46C1032.39 154.972 1020.14 134.37 1012.34 111.263C1009.84 104.024 1008.44 96.5072 1006.22 88.9903C1052.99 95.3936 1110.62 138.825 1117.02 210.374C1123.7 285.265 1068.86 350.968 994.246 357.928C919.634 365.167 853.374 310.6 845.857 236.266C838.061 160.818 892.072 99.2913 957.497 88.4335Z" fill="#8BC34A"/>
<path d="M1013.73 254.64C997.03 271.345 970.303 272.737 952.207 257.703C934.111 242.391 929.935 215.942 943.577 197.011C965.292 166.386 975.315 132.143 977.542 95.3936C978.377 80.6382 976.985 65.8828 970.582 51.9627C968.911 48.3434 966.684 44.7242 964.457 41.3833C957.775 32.196 958.332 20.2246 966.406 12.4293C974.479 4.63402 986.451 4.07721 995.36 11.0373C1003.71 17.719 1005.94 30.804 999.536 39.7129C990.627 51.9626 986.451 65.8828 985.894 80.6382C984.224 119.615 993.968 155.807 1014.01 189.216C1016.24 192.835 1019.02 196.176 1021.25 199.795C1031.27 217.891 1028.21 239.885 1013.73 254.64Z" fill="#8BC34A"/>
<path d="M207.477 240.163V302.804C207.477 333.707 182.421 358.763 151.518 358.763H130.081V239.328L0.623596 24.1224H51.293C71.0597 24.1224 89.1559 34.4233 99.1784 51.1275L172.399 172.79L245.619 51.1275C255.641 34.4233 274.016 24.1224 293.504 24.1224H337.77L207.477 240.163Z" fill="white"/>
<path d="M539.334 247.402H344.73C351.969 279.418 379.252 298.906 418.229 298.906C431.592 298.906 443.007 296.958 453.308 293.06C474.466 284.986 498.409 291.111 513.721 307.537L522.352 317.003C498.409 344.286 462.495 358.485 416.28 358.485C327.469 358.485 269.561 302.526 269.561 225.965C269.561 149.125 328.305 93.4447 406.814 93.4447C482.262 93.4447 540.726 144.114 540.726 226.8C540.726 233.203 539.891 241.277 539.334 247.402ZM343.895 203.971H470.569C465.279 171.398 441.058 150.517 407.371 150.517C373.406 150.239 348.906 170.841 343.895 203.971Z" fill="white"/>
<path d="M836.669 226.522C836.669 307.259 780.71 359.042 708.604 359.042C674.082 359.042 646.52 348.184 627.867 325.633C627.867 342.059 614.503 355.144 598.356 355.144H556.595V0.179565H575.248C606.151 0.179565 631.208 25.2359 631.208 56.1387V124.904C650.417 103.746 676.587 93.7232 708.604 93.7232C780.71 94.0016 836.669 145.506 836.669 226.522ZM761.222 226.522C761.222 181.977 733.103 155.25 695.797 155.25C658.491 155.25 630.372 181.977 630.372 226.522C630.372 271.066 658.491 297.793 695.797 297.793C732.825 297.514 761.222 270.788 761.222 226.522Z" fill="white"/>
<path d="M1270.98 335.377L1231.45 279.975L1189.96 336.213C1179.38 350.411 1162.68 359.042 1144.86 359.042H1091.69L1190.52 229.584L1095.03 102.075H1150.15C1167.97 102.075 1184.95 110.706 1195.53 125.183L1233.39 177.244L1272.65 124.626C1283.23 110.427 1299.93 102.075 1317.47 102.075H1368.7L1273.21 227.914L1372.6 359.32H1316.64C1298.54 358.763 1281.56 350.133 1270.98 335.377Z" fill="white"/>
</svg>
